<?xml version="1.0" encoding="UTF-8" standalone="no"?>
<svg
   xmlns:dc="http://purl.org/dc/elements/1.1/"
   xmlns:cc="http://creativecommons.org/ns#"
   xmlns:rdf="http://www.w3.org/1999/02/22-rdf-syntax-ns#"
   xmlns:svg="http://www.w3.org/2000/svg"
   xmlns="http://www.w3.org/2000/svg"
   id="svg8"
   version="1.1"
   viewBox="0 0 338.66666 190.50001"
   height="720"
   width="1280">
  <defs
     id="defs2" />
  <metadata
     id="metadata5">
    <rdf:RDF>
      <cc:Work
         rdf:about="">
        <dc:format>image/svg+xml</dc:format>
        <dc:type
           rdf:resource="http://purl.org/dc/dcmitype/StillImage" />
        <dc:title></dc:title>
      </cc:Work>
    </rdf:RDF>
  </metadata>
  <g
     transform="translate(0,-106.49998)"
     id="layer1">
    <rect
       y="103.47617"
       x="-1.5119048"
       height="197.30357"
       width="346.2262"
       id="rect815"
       style="opacity:1;fill:#fc6d5c;fill-opacity:1;fill-rule:nonzero;stroke:#e39c3f;stroke-width:0.78399998;stroke-linecap:round;stroke-linejoin:round;stroke-miterlimit:4;stroke-dasharray:none;stroke-opacity:1;paint-order:normal" />
    <g
       style="fill:none"
       transform="matrix(2.6436128,0,0,2.8048435,202.08823,115.68471)"
       id="012---Water-Fountain">
      <circle
         style="fill:#fdd7ad"
         id="Oval"
         cx="30"
         cy="6"
         r="6" />
      <path
         style="fill:#95a5a5"
         id="Shape"
         d="m 54,21 v 14 c 0,0.552285 -0.447715,1 -1,1 h -7.59 c -0.262147,-0.0021 -0.5132,-0.106068 -0.7,-0.29 L 34.12,25.12 C 33.147995,24.165746 32.953904,22.670831 33.65,21.5 34.171962,20.561915 35.166572,19.985886 36.24,20 H 53 c 0.552285,0 1,0.447715 1,1 z" />
      <path
         style="fill:#bdc3c7"
         id="path2303"
         d="m 54,21 v 11 c 0,0.552285 -0.447715,1 -1,1 h -7.59 c -0.262147,-0.0021 -0.5132,-0.106068 -0.7,-0.29 L 34.12,22.12 C 33.934671,21.936714 33.776413,21.727948 33.65,21.5 34.171962,20.561915 35.166572,19.985886 36.24,20 H 53 c 0.552285,0 1,0.447715 1,1 z" />
      <g
         style="fill:#2fa8cc"
         id="g2313">
        <circle
           id="circle2305"
           cx="40"
           cy="17"
           r="1" />
        <circle
           id="circle2307"
           cx="43"
           cy="15"
           r="1" />
        <circle
           id="circle2309"
           cx="46"
           cy="14"
           r="1" />
        <circle
           id="circle2311"
           cx="49"
           cy="15"
           r="1" />
      </g>
      <path
         style="fill:#955ba5"
         id="path2315"
         d="m 31.17,28.17 1.39,1.47 c 0.757403,0.759189 1.05225,1.864779 0.773474,2.900304 -0.278776,1.035525 -1.088821,1.843665 -2.125,2.12 C 30.172295,34.93664 29.067403,34.639189 28.31,33.88 L 21.83,27.11 C 21.298925,26.551449 21.001919,25.810724 21,25.04 V 19.6 C 21.000297,19.240516 20.807618,18.908535 20.495334,18.730471 20.183049,18.552407 19.799219,18.555663 19.49,18.739 l -11,6.516 C 8.1863006,25.435064 8.0000616,25.761933 8,26.115 v 27.7 C 8.0360826,55.917646 6.4857224,57.711327 4.4,57.98 3.2751944,58.093047 2.1550756,57.724862 1.3166998,56.966513 0.47832399,56.208164 -1.42e-5,55.130472 0,54 V 20.91 C 4.08e-4,18.81784 1.0905852,16.876969 2.877,15.788 L 4.17,15 16.91,7.27 C 18.079299,6.558015 19.483748,6.3402852 20.813735,6.6648096 22.143722,6.9893339 23.290047,7.8294669 24,9 l 1.61,2.37 c 0.906192,1.325668 1.390696,2.894205 1.39,4.5 v 7.492 c -9.3e-5,0.255464 0.09759,0.501277 0.273,0.687 z" />
      <path
         style="fill:#35495e"
         id="path2317"
         d="M 10.04,24.33 8.49,25.25 C 8.1880569,25.431785 8.0024371,25.757566 8,26.11 v 27.7 C 8.0359068,55.913545 6.4862654,57.708546 4.4,57.98 3.2751944,58.093047 2.1550756,57.724862 1.3166998,56.966513 0.47832399,56.208164 -1.42e-5,55.130472 0,54 V 20.91 C 0.00174296,18.817953 1.0930429,16.877864 2.88,15.79 L 4.17,15 4.57,14.75 Z" />
    </g>
  </g>
</svg>
