<?xml version="1.0" encoding="UTF-8" standalone="no"?>
<svg
   xmlns:dc="http://purl.org/dc/elements/1.1/"
   xmlns:cc="http://creativecommons.org/ns#"
   xmlns:rdf="http://www.w3.org/1999/02/22-rdf-syntax-ns#"
   xmlns:svg="http://www.w3.org/2000/svg"
   xmlns="http://www.w3.org/2000/svg"
   id="svg8"
   version="1.1"
   viewBox="0 0 338.66666 190.50001"
   height="720"
   width="1280">
  <defs
     id="defs2" />
  <metadata
     id="metadata5">
    <rdf:RDF>
      <cc:Work
         rdf:about="">
        <dc:format>image/svg+xml</dc:format>
        <dc:type
           rdf:resource="http://purl.org/dc/dcmitype/StillImage" />
        <dc:title></dc:title>
      </cc:Work>
    </rdf:RDF>
  </metadata>
  <g
     transform="translate(0,-106.49998)"
     id="layer1">
    <rect
       y="103.47617"
       x="-1.5119048"
       height="197.30357"
       width="346.2262"
       id="rect815"
       style="opacity:1;fill:#fc6d5c;fill-opacity:1;fill-rule:nonzero;stroke:#e39c3f;stroke-width:0.78399998;stroke-linecap:round;stroke-linejoin:round;stroke-miterlimit:4;stroke-dasharray:none;stroke-opacity:1;paint-order:normal" />
    <g
       style="fill:#faca78;fill-opacity:1"
       transform="matrix(0.30970144,0,0,0.33358765,93.372743,118.38963)"
       id="g3771">
      <g
         style="fill:#faca78;fill-opacity:1"
         id="g3709">
	<path
   style="fill:#faca78;fill-opacity:1"
   d="m 126.266,40.576 c -1.35,4.442 -1.543,9.054 -0.53,13.568 3.35,14.926 18.702,24.237 34.191,20.758 5.431,-1.221 10.251,-3.944 14.083,-7.865 l 17.746,16.22 c 1.181,1.085 2.675,1.615 4.162,1.615 1.671,0 3.334,-0.675 4.555,-2.008 2.298,-2.515 2.121,-6.419 -0.394,-8.716 L 177.36,53.389 c -1.39,-1.261 -3.286,-1.839 -5.109,-1.542 -1.848,0.289 -3.47,1.398 -4.402,3.021 -2.386,4.153 -6.161,6.989 -10.628,8.001 -8.837,2 -17.578,-3.125 -19.449,-11.432 -0.924,-4.129 0.233,-7.672 1.357,-9.913 1.39,-2.764 0.514,-6.129 -2.04,-7.873 -2.523,-1.719 -4.282,-4.306 -4.957,-7.302 -0.691,-3.077 -0.201,-6.218 1.39,-8.845 1.543,-2.539 3.936,-4.29 6.756,-4.925 4.539,-1.044 9.271,1.302 11.777,5.776 0.915,1.639 2.522,2.763 4.37,3.077 1.807,0.289 3.728,-0.257 5.133,-1.494 2.281,-2.049 4.948,-3.431 7.913,-4.106 4.29,-0.996 8.644,-0.377 12.267,1.671 3.414,1.936 5.728,4.957 6.531,8.515 1.157,5.158 -1.124,10.58 -5.969,14.155 -1.711,1.261 -2.651,3.318 -2.49,5.431 0.161,2.121 1.406,4.009 3.286,4.997 l 23.434,12.308 c 3.021,1.599 6.764,0.426 8.331,-2.595 1.583,-3.013 0.426,-6.748 -2.595,-8.331 l -16.171,-8.491 c 4.145,-5.945 5.776,-13.232 4.209,-20.18 -1.567,-6.997 -6.001,-12.87 -12.476,-16.541 -6.282,-3.567 -13.793,-4.619 -21.08,-2.972 -2.812,0.634 -5.519,1.679 -8.025,3.084 -5.559,-5.583 -13.48,-8.073 -21.152,-6.338 -6.122,1.374 -11.311,5.126 -14.605,10.572 -3.245,5.366 -4.266,11.737 -2.868,17.938 0.979,4.379 3.116,8.339 6.168,11.521 z"
   id="path3695" />

	<path
   style="fill:#faca78;fill-opacity:1"
   d="m 282.084,43.234 -6.242,13.914 c -0.932,2.073 -0.008,4.507 2.064,5.439 2.081,0.939 4.515,0.008 5.439,-2.065 l 8.074,-17.987 c 0.514,-1.141 0.482,-2.442 -0.088,-3.559 -0.562,-1.108 -1.607,-1.896 -2.82,-2.153 -2.965,-0.619 -5.423,-2.33 -6.909,-4.804 -2.932,-4.917 -1.583,-11.15 3.004,-13.897 1.816,-1.093 3.929,-1.479 6.21,-1.149 2.089,0.337 4,-0.948 4.563,-2.948 0.514,-1.824 1.711,-3.374 3.366,-4.37 3.439,-2.049 7.841,-1.109 9.801,2.144 1.495,2.498 1.029,5.76 -1.148,8.122 -0.844,0.924 -1.229,2.177 -1.036,3.414 0.192,1.237 0.932,2.322 2.017,2.94 1.679,0.964 3.044,2.297 4.041,3.944 1.502,2.515 1.983,5.479 1.317,8.13 -0.554,2.209 -1.872,4.033 -3.711,5.133 -2.82,1.719 -6.507,1.406 -9.624,-0.795 -1.165,-0.819 -2.643,-0.964 -3.961,-0.441 -1.309,0.546 -2.241,1.727 -2.474,3.125 l -2.788,16.733 c -0.377,2.242 1.141,4.362 3.382,4.732 0.226,0.04 0.458,0.056 0.683,0.056 1.968,0 3.711,-1.422 4.049,-3.438 l 1.896,-11.367 c 4.475,1.309 9.174,0.787 13.071,-1.55 3.719,-2.217 6.371,-5.84 7.455,-10.187 1.197,-4.756 0.378,-9.986 -2.249,-14.372 -0.94,-1.559 -2.097,-2.98 -3.431,-4.209 2.266,-4.523 2.185,-9.825 -0.434,-14.195 -4.273,-7.142 -13.713,-9.367 -21.08,-4.973 -2.474,1.478 -4.458,3.567 -5.792,6.041 -2.956,0.088 -5.792,0.9 -8.339,2.418 -8.483,5.077 -11.11,16.372 -5.84,25.185 1.822,3.037 4.417,5.431 7.534,6.989 z"
   id="path3697" />

	<path
   style="fill:#faca78;fill-opacity:1"
   d="m 347.573,44.239 c -2.274,0 -4.113,1.839 -4.113,4.113 0,2.273 1.839,4.113 4.113,4.113 18.421,0 33.411,14.991 33.411,33.412 0,2.273 1.839,4.113 4.113,4.113 2.273,0 4.113,-1.839 4.113,-4.113 0,-22.96 -18.677,-41.638 -41.637,-41.638 z"
   id="path3699" />

	<path
   style="fill:#faca78;fill-opacity:1"
   d="m 364.025,27.786 c -2.273,0 -4.113,1.84 -4.113,4.113 0,2.273 1.84,4.113 4.113,4.113 18.421,0 33.412,14.991 33.412,33.412 0,2.273 1.839,4.113 4.113,4.113 2.273,0 4.113,-1.84 4.113,-4.113 0,-22.96 -18.678,-41.638 -41.638,-41.638 z"
   id="path3701" />

	<path
   style="fill:#faca78;fill-opacity:1"
   d="m 132.773,103.614 c 2.024,-1.028 2.836,-3.503 1.8,-5.527 -1.013,-2.017 -3.494,-2.812 -5.527,-1.8 -19.095,9.696 -26.743,33.13 -17.047,52.242 0.731,1.43 2.177,2.249 3.671,2.249 0.627,0 1.262,-0.145 1.864,-0.442 2.024,-1.028 2.836,-3.511 1.808,-5.535 -7.648,-15.062 -1.623,-33.539 13.431,-41.187 z"
   id="path3703" />

	<path
   style="fill:#faca78;fill-opacity:1"
   d="m 112.288,96.93 c 2.024,-1.028 2.836,-3.502 1.8,-5.527 -1.021,-2.017 -3.511,-2.811 -5.527,-1.799 -19.096,9.704 -26.735,33.146 -17.031,52.25 0.723,1.43 2.168,2.249 3.664,2.249 0.626,0 1.269,-0.145 1.863,-0.45 2.024,-1.028 2.836,-3.502 1.8,-5.527 -7.649,-15.055 -1.624,-33.54 13.431,-41.196 z"
   id="path3705" />

	<path
   style="fill:#faca78;fill-opacity:1"
   d="M 356.273,85.523 C 351.091,72.91 336.695,66.893 324.075,72.043 313,76.585 307.011,88.249 309.209,99.565 c -10.595,2.25 -20.796,0.835 -27.887,-1.137 -8.561,-6.999 -19.352,-11.372 -31.268,-11.372 -17.749,0 -33.215,9.391 -41.998,23.401 -7.368,4.778 -14.194,6.35 -19.628,6.377 -3.08,-5.139 -7.966,-9.214 -14.169,-11.028 -13.103,-3.88 -26.784,3.68 -30.616,16.75 L 127.6,177.394 c -3.502,11.906 -2.073,24.977 3.904,35.837 5.961,10.87 16.22,19.08 28.15,22.534 l 35.507,10.246 -7.738,73.998 -29.078,9.548 c -11.817,3.88 -19.811,14.91 -19.811,27.354 V 464.19 c 0,15.898 12.894,28.792 28.792,28.792 15.898,0 28.792,-12.893 28.792,-28.792 v -86.432 l 49.077,-16.107 c 3.181,-1.06 6.547,-1.052 9.712,-0.008 L 304,377.766 v 86.424 c 0,15.898 12.894,28.792 28.791,28.792 15.898,0 28.792,-12.893 28.792,-28.792 V 356.91 c 0,-12.444 -7.993,-23.474 -19.811,-27.354 l -29.086,-9.552 -7.864,-75.192 60.247,-45.519 c 16.998,-12.846 23.232,-35.588 15.159,-55.311 z m -126.76,75.257 c 11.327,-11.327 29.756,-11.327 41.083,0 2.41,2.41 2.41,6.314 0,8.725 -1.205,1.205 -2.779,1.808 -4.362,1.808 -1.582,0 -3.157,-0.603 -4.362,-1.808 -6.523,-6.507 -17.111,-6.507 -23.635,0 -2.41,2.41 -6.314,2.41 -8.725,0 -2.41,-2.41 -2.41,-6.315 0.001,-8.725 z m 54.285,38.055 h -74.08 l -34.086,-9.833 15.376,-52.579 c 0.369,-1.257 0.542,-2.518 0.705,-3.778 3.271,1.738 6.267,3.653 8.84,5.769 0.91,26.627 22.653,47.985 49.501,47.985 27.426,0 49.672,-22.246 49.672,-49.671 0,-2.717 -0.381,-5.334 -0.801,-7.933 4.568,-6.58 9.981,-12.466 14.781,-16.962 l 20.154,49.181 z"
   id="path3707" />

</g>
      <g
         style="fill:#faca78;fill-opacity:1"
         id="g3711">
</g>
      <g
         style="fill:#faca78;fill-opacity:1"
         id="g3713">
</g>
      <g
         style="fill:#faca78;fill-opacity:1"
         id="g3715">
</g>
      <g
         style="fill:#faca78;fill-opacity:1"
         id="g3717">
</g>
      <g
         style="fill:#faca78;fill-opacity:1"
         id="g3719">
</g>
      <g
         style="fill:#faca78;fill-opacity:1"
         id="g3721">
</g>
      <g
         style="fill:#faca78;fill-opacity:1"
         id="g3723">
</g>
      <g
         style="fill:#faca78;fill-opacity:1"
         id="g3725">
</g>
      <g
         style="fill:#faca78;fill-opacity:1"
         id="g3727">
</g>
      <g
         style="fill:#faca78;fill-opacity:1"
         id="g3729">
</g>
      <g
         style="fill:#faca78;fill-opacity:1"
         id="g3731">
</g>
      <g
         style="fill:#faca78;fill-opacity:1"
         id="g3733">
</g>
      <g
         style="fill:#faca78;fill-opacity:1"
         id="g3735">
</g>
      <g
         style="fill:#faca78;fill-opacity:1"
         id="g3737">
</g>
      <g
         style="fill:#faca78;fill-opacity:1"
         id="g3739">
</g>
    </g>
  </g>
</svg>
