<?xml version="1.0" encoding="UTF-8" standalone="no"?>
<svg
   xmlns:dc="http://purl.org/dc/elements/1.1/"
   xmlns:cc="http://creativecommons.org/ns#"
   xmlns:rdf="http://www.w3.org/1999/02/22-rdf-syntax-ns#"
   xmlns:svg="http://www.w3.org/2000/svg"
   xmlns="http://www.w3.org/2000/svg"
   id="svg8"
   version="1.1"
   viewBox="0 0 338.66666 190.50001"
   height="720"
   width="1280">
  <defs
     id="defs2" />
  <metadata
     id="metadata5">
    <rdf:RDF>
      <cc:Work
         rdf:about="">
        <dc:format>image/svg+xml</dc:format>
        <dc:type
           rdf:resource="http://purl.org/dc/dcmitype/StillImage" />
        <dc:title></dc:title>
      </cc:Work>
    </rdf:RDF>
  </metadata>
  <g
     transform="translate(0,-106.49998)"
     id="layer1">
    <rect
       y="103.47617"
       x="-1.5119048"
       height="197.30357"
       width="346.2262"
       id="rect815"
       style="opacity:1;fill:#fc6d5c;fill-opacity:1;fill-rule:nonzero;stroke:#e39c3f;stroke-width:0.78399998;stroke-linecap:round;stroke-linejoin:round;stroke-miterlimit:4;stroke-dasharray:none;stroke-opacity:1;paint-order:normal" />
    <g
       transform="matrix(0.33659623,0,0,0.30217972,95.927379,131.21411)"
       id="g2944">
	
	<g
   id="g2930">
		
		
		
	</g>

	
<g
   transform="matrix(7.7025113,0,0,8.338559,-65.612009,51.707021)"
   id="g3054">
  <path
     style="fill:#b6dedc"
     d="m 57,26.99311 a 24,24 0 0 0 -48,0 L 5,39 h 8 v 10 h 14 v 12 h 30 z"
     id="path3007" />
  <circle
     style="fill:#344496"
     cx="34"
     cy="27"
     r="17"
     id="circle3009" />
  <circle
     style="fill:#fcd821"
     cx="34"
     cy="27"
     r="12"
     id="circle3011" />
  <g
     style="fill:#ec322c"
     id="g3021">
    <circle
       cx="34"
       cy="27"
       r="7"
       id="circle3013" />
    <path
       d="m 29,8 v 9 l 5,4 v -9 z"
       id="path3015" />
    <path
       d="m 39,8 v 9 l -5,4 v -9 z"
       id="path3017" />
    <path
       d="m 38.89885,21.99987 a 7,7 0 1 1 -9.79772,0"
       id="path3019" />
  </g>
  <path
     d="M 57,62 H 27 A 0.99974,0.99974 0 0 1 26,61 V 50 H 13 A 0.99974,0.99974 0 0 1 12,49 V 40 H 5 A 1.00015,1.00015 0 0 1 4.05127,38.68359 L 8.00049,26.8291 A 25,25 0 0 1 58,26.99316 V 61 a 0.99974,0.99974 0 0 1 -1,1 z M 28,60 H 56 V 26.99316 a 23,23 0 0 0 -46,0 0.99853,0.99853 0 0 1 -0.05127,0.31641 L 6.38721,38 H 13 a 0.99974,0.99974 0 0 1 1,1 v 9 h 13 a 0.99974,0.99974 0 0 1 1,1 z"
     id="path3023" />
  <path
     d="M 34,45 A 18.00114,18.00114 0 0 1 23.78613,12.17676 l 1.13575,1.64648 a 16.0004,16.0004 0 1 0 18.48925,0.23633 l 1.17774,-1.61719 A 18.0011,18.0011 0 0 1 34,45 Z"
     id="path3025" />
  <path
     d="M 39.43311,7.09863 A 0.99853,0.99853 0 0 0 38.37549,7.21875 L 34,10.71912 29.62451,7.21875 A 1.00014,1.00014 0 0 0 28,8 v 9 a 1.00172,1.00172 0 0 0 0.37549,0.78125 L 33,21.48083 V 27 h 2 v -5.51917 l 4.62451,-3.69958 A 1.00172,1.00172 0 0 0 40,17 V 8 A 0.99992,0.99992 0 0 0 39.43311,7.09863 Z M 30,10.08105 33,12.48047 V 18.919 l -3,-2.39942 z m 8,6.43848 -3,2.39947 v -6.43853 l 3,-2.39942 z"
     id="path3027" />
  <path
     d="M 34,40 A 13.00009,13.00009 0 0 1 24.31055,18.333 l 1.49023,1.334 a 11,11 0 1 0 16.39844,0 l 1.49023,-1.334 A 13.00009,13.00009 0 0 1 34,40 Z"
     id="path3029" />
  <path
     d="M 34,35 A 7.99957,7.99957 0 0 1 28.40137,21.28613 l 1.39941,1.42774 a 6,6 0 1 0 8.39844,0 l 1.39941,-1.42774 A 7.99957,7.99957 0 0 1 34,35 Z"
     id="path3031" />
</g>
</g>
  </g>
</svg>
