<?xml version="1.0" encoding="UTF-8" standalone="no"?>
<svg
   xmlns:dc="http://purl.org/dc/elements/1.1/"
   xmlns:cc="http://creativecommons.org/ns#"
   xmlns:rdf="http://www.w3.org/1999/02/22-rdf-syntax-ns#"
   xmlns:svg="http://www.w3.org/2000/svg"
   xmlns="http://www.w3.org/2000/svg"
   id="svg8"
   version="1.1"
   viewBox="0 0 338.66666 190.50001"
   height="720"
   width="1280">
  <defs
     id="defs2" />
  <metadata
     id="metadata5">
    <rdf:RDF>
      <cc:Work
         rdf:about="">
        <dc:format>image/svg+xml</dc:format>
        <dc:type
           rdf:resource="http://purl.org/dc/dcmitype/StillImage" />
        <dc:title></dc:title>
      </cc:Work>
    </rdf:RDF>
  </metadata>
  <g
     transform="translate(0,-106.49998)"
     id="layer1">
    <rect
       y="103.47617"
       x="-1.5119048"
       height="197.30357"
       width="346.2262"
       id="rect815"
       style="opacity:1;fill:#fc6d5c;fill-opacity:1;fill-rule:nonzero;stroke:#e39c3f;stroke-width:0.78399998;stroke-linecap:round;stroke-linejoin:round;stroke-miterlimit:4;stroke-dasharray:none;stroke-opacity:1;paint-order:normal" />
    <g
       transform="matrix(0.33659623,0,0,0.30217972,95.927379,131.21411)"
       id="g2944">
	<g
   id="g2922">
		<path
   style="fill:#f9c295"
   d="M 49.097,504.48 H 331.03 l -2.378,-37.72 c -1.767,-27.993 -21.482,-51.603 -48.716,-58.33 l -40.97,-10.124 c -2.027,-0.498 -3.443,-2.31 -3.443,-4.394 V 302.21 h -91.385 v 91.815 c 0,2.084 -1.427,3.895 -3.443,4.394 l -40.506,10.011 c -27.234,6.726 -46.949,30.337 -48.716,58.33 z"
   id="path2906" />

		<path
   style="fill:#e8a26a"
   d="m 328.652,466.76 c -1.767,-27.993 -21.482,-51.603 -48.716,-58.33 l -40.97,-10.124 c -2.027,-0.499 -3.443,-2.31 -3.443,-4.394 V 302.21 h -27.384 v 91.702 c 0,2.084 1.416,3.896 3.443,4.394 l 40.97,10.124 c 27.234,6.727 46.949,30.337 48.716,58.33 l 2.378,37.72 h 27.384 z"
   id="path2908" />

		<path
   style="fill:#e8a26a"
   d="m 144.139,378.302 c 15.649,8.057 31.873,12.188 45.924,12.188 13.912,0 29.955,-4.046 45.46,-11.945 v -76.333 h -91.385 v 76.09 z"
   id="path2910" />

		<path
   style="fill:#f9c295"
   d="m 190.063,95.482 v 0 c 53.325,0 98.847,38.698 107.248,91.358 3.382,21.199 5.098,57.819 3.727,72.015 -6.709,69.433 -68.686,106.8 -110.975,106.8 -42.289,0 -104.266,-37.368 -110.975,-106.8 -1.372,-14.196 0.345,-50.817 3.727,-72.015 8.401,-52.66 53.923,-91.358 107.248,-91.358 z"
   id="path2912" />

		<path
   style="fill:#e8a26a"
   d="M 297.311,186.84 C 288.91,134.181 243.388,95.483 190.063,95.483 v 0 c -2.311,0 -4.602,0.099 -6.882,0.242 44.461,3.166 81.589,40.739 88.691,91.115 2.989,21.199 4.505,57.819 3.293,72.016 -5.614,65.752 -55.025,102.742 -91.984,106.479 2.341,0.209 4.641,0.321 6.882,0.321 42.288,0 104.266,-37.368 110.975,-106.8 1.372,-14.198 -0.345,-50.818 -3.727,-72.016 z"
   id="path2914" />

		<path
   style="fill:#d8e6f0"
   d="m 233.076,60.699 c 0,0 80.348,-4.979 81.049,90.646 25.991,15.006 13.641,64.526 4.781,83.908 -0.986,2.158 -2.938,3.71 -5.261,4.196 l -12.157,2.542 c -9.403,-36.967 -29.31,-95.895 -111.425,-112.643 27.304,-61.57 43.013,-68.649 43.013,-68.649 z"
   id="path2916" />

		<path
   style="fill:#aac0d1"
   d="M 279.953,74.146 C 257.811,59.175 233.076,60.699 233.076,60.699 c 0,0 -15.71,7.079 -43.013,68.648 17.261,3.521 31.764,8.91 44.008,15.563 24.414,-17.888 44.826,-39.5 46.174,-62.537 0.158,-2.695 0.05,-5.449 -0.292,-8.227 z"
   id="path2918" />

		<path
   style="fill:#d8e6f0"
   d="m 79.089,258.855 c 0,-31.686 28.859,-68.051 63.696,-84.403 C 177.622,158.1 256.224,117.804 258.912,71.833 261.6,25.862 189.976,-37.121 100.165,54.016 30.136,125.078 50.518,225.357 56.47,249.889 c 1.705,7.031 22.619,19.939 22.619,8.966 z"
   id="path2920" />

	</g>

	<g
   id="g2930">
		
		
		
	</g>

	<g
   id="g2942">
		
		
		<path
   d="m 244.516,260.119 h -0.184 c -4.143,0 -7.5,3.357 -7.5,7.5 0,4.143 3.357,7.5 7.5,7.5 h 0.184 c 4.143,0 7.5,-3.357 7.5,-7.5 0,-4.143 -3.358,-7.5 -7.5,-7.5 z"
   id="path2936" />

		<path
   d="m 244.516,286.412 h -0.184 c -4.143,0 -7.5,3.357 -7.5,7.5 0,4.143 3.357,7.5 7.5,7.5 h 0.184 c 4.143,0 7.5,-3.357 7.5,-7.5 0,-4.143 -3.358,-7.5 -7.5,-7.5 z"
   id="path2938" />

		<path
   d="m 275.279,260.119 c -4.143,0 -7.5,3.357 -7.5,7.5 0,4.143 3.357,7.5 7.5,7.5 h 0.185 c 4.143,0 7.5,-3.357 7.5,-7.5 0,-4.143 -3.357,-7.5 -7.5,-7.5 z"
   id="path2940" />

	</g>

</g>
  </g>
</svg>
