<?xml version="1.0" encoding="UTF-8" standalone="no"?>
<svg
   xmlns:dc="http://purl.org/dc/elements/1.1/"
   xmlns:cc="http://creativecommons.org/ns#"
   xmlns:rdf="http://www.w3.org/1999/02/22-rdf-syntax-ns#"
   xmlns:svg="http://www.w3.org/2000/svg"
   xmlns="http://www.w3.org/2000/svg"
   id="svg8"
   version="1.1"
   viewBox="0 0 338.66666 190.50001"
   height="720"
   width="1280">
  <defs
     id="defs2" />
  <metadata
     id="metadata5">
    <rdf:RDF>
      <cc:Work
         rdf:about="">
        <dc:format>image/svg+xml</dc:format>
        <dc:type
           rdf:resource="http://purl.org/dc/dcmitype/StillImage" />
        <dc:title></dc:title>
      </cc:Work>
    </rdf:RDF>
  </metadata>
  <g
     transform="translate(0,-106.49998)"
     id="layer1">
    <rect
       y="103.47617"
       x="-1.5119048"
       height="197.30357"
       width="346.2262"
       id="rect815"
       style="opacity:1;fill:#fc6d5c;fill-opacity:1;fill-rule:nonzero;stroke:#e39c3f;stroke-width:0.78399998;stroke-linecap:round;stroke-linejoin:round;stroke-miterlimit:4;stroke-dasharray:none;stroke-opacity:1;paint-order:normal" />
    <g
       transform="matrix(0.35315403,0,0,0.31781574,84.70821,119.65359)"
       id="g2272">
      <path
         style="fill:#f9cebb"
         d="m 365.486,487.447 c -21.4,10.157 -44.439,17.423 -68.616,21.296 -6.065,-2.714 -10.283,-8.811 -10.283,-15.878 V 429.51 H 185.296 c -34.783,0 -62.604,-26.202 -66.612,-58.825 -0.772,-6.117 -0.689,-12.464 0.344,-18.895 l 10.022,-62.572 c 10.084,-63.042 64.462,-109.402 128.297,-109.402 h 29.24 v 190.869 h 32.226 c 11.869,0 21.494,9.625 21.494,21.484 v 85.956 h 10.596 c 4.437,0 8.456,1.796 11.368,4.698 1.325,1.336 2.421,2.902 3.215,4.624 z"
         id="path2105" />
      <g
         id="g2111">
	<path
   style="fill:#f4b298"
   d="m 305.816,507.146 c -2.965,0.585 -5.95,1.117 -8.946,1.597 -0.01,0.01 -0.01,0.01 -0.01,0 -6.055,-2.725 -10.272,-8.821 -10.272,-15.878 V 429.51 h 11.765 v 63.355 c -0.001,5.909 2.953,11.139 7.463,14.281 z"
   id="path2107" />

	<path
   style="fill:#f4b298"
   d="m 206.468,429.509 h -21.177 c -34.777,0 -62.6,-26.2 -66.612,-58.823 -0.765,-6.118 -0.683,-12.459 0.353,-18.894 l 10.012,-62.576 c 10.095,-63.036 64.471,-109.4 128.306,-109.4 h 21.177 c -63.835,0 -118.212,46.364 -128.306,109.4 l -10.012,62.576 c -1.036,6.435 -1.118,12.776 -0.353,18.894 4.012,32.623 31.837,58.823 66.612,58.823 z"
   id="path2109" />

</g>
      <path
         style="fill:#ff80b0"
         d="M 286.587,179.814 V 370.685 H 118.681 c -0.765,-6.118 -0.683,-12.459 0.353,-18.894 l 10.012,-62.576 c 5.047,-31.518 21.164,-58.883 44.011,-78.353 22.836,-19.459 52.376,-31.047 84.294,-31.047 h 29.236 z"
         id="path2113" />
      <path
         style="fill:#f567a7"
         d="m 278.528,179.814 c -63.835,0 -118.212,46.364 -128.306,109.4 L 140.21,351.79 c -1.036,6.435 -1.118,12.776 -0.353,18.894 H 118.68 c -0.765,-6.118 -0.683,-12.459 0.353,-18.894 l 10.012,-62.576 c 5.047,-31.518 21.164,-58.883 44.011,-78.353 22.836,-19.459 52.376,-31.047 84.294,-31.047 z"
         id="path2115" />
      <g
         id="g2121">
	<path
   style="fill:#f4b298"
   d="m 286.587,179.814 v 96.023 c -50.695,-3.07 -93.518,-25.694 -113.53,-64.976 22.836,-19.459 52.376,-31.047 84.294,-31.047 z"
   id="path2117" />

	<circle
   style="fill:#f4b298"
   cx="375.10999"
   cy="132.869"
   r="33.530998"
   id="circle2119" />

</g>
      <circle
         style="fill:#d88f7c"
         cx="369.24301"
         cy="138.45399"
         r="22.079"
         id="circle2123" />
      <circle
         style="fill:#eaa48c"
         cx="99.861"
         cy="132.869"
         r="33.530998"
         id="circle2125" />
      <circle
         style="fill:#d88f7c"
         cx="105.728"
         cy="138.45399"
         r="22.079"
         id="circle2127" />
      <path
         style="fill:#f9cebb"
         d="m 375.229,139.556 c 0,76.072 -61.669,118.615 -137.741,118.615 -76.072,0 -137.742,-42.543 -137.742,-118.615 0,-76.072 61.669,-137.742 137.741,-137.742 76.072,0 137.742,61.669 137.742,137.742 z"
         id="path2129" />
      <path
         style="fill:#f4b298"
         d="m 237.492,258.166 c -76.074,0 -137.745,-42.545 -137.745,-118.611 0,-75.65 60.981,-137.055 136.465,-137.737 -54.071,0.956 -97.687,62.254 -97.687,137.737 -0.002,76.067 44.306,118.611 98.967,118.611 z"
         id="path2131" />
      <g
         id="g2137">
	<path
   style="fill:#39b7dd"
   d="m 313.725,139.9 v -24.73 c 0,-6.449 -5.228,-11.678 -11.678,-11.678 v 0 c -6.449,0 -11.678,5.228 -11.678,11.678 v 24.73 c 0,6.449 5.228,11.678 11.678,11.678 v 0 c 6.449,0 11.678,-5.227 11.678,-11.678 z"
   id="path2133" />

	<path
   style="fill:#39b7dd"
   d="m 184.605,139.9 v -24.73 c 0,-6.449 -5.228,-11.678 -11.678,-11.678 v 0 c -6.449,0 -11.678,5.228 -11.678,11.678 v 24.73 c 0,6.449 5.228,11.678 11.678,11.678 v 0 c 6.45,0 11.678,-5.227 11.678,-11.678 z"
   id="path2135" />

</g>
      <path
         style="fill:#53506d"
         d="m 197.367,176.673 c -6.08,0 -10.664,5.645 -9.282,11.567 5.234,22.443 25.366,39.161 49.403,39.161 24.037,0 44.169,-16.718 49.403,-39.161 1.381,-5.921 -3.203,-11.567 -9.282,-11.567 z"
         id="path2139" />
      <path
         style="fill:#ffffff"
         d="m 249.298,191.642 v 0 c -3.307,0 -5.988,-2.681 -5.988,-5.988 v -8.981 h 11.975 v 8.981 c 0.001,3.307 -2.68,5.988 -5.987,5.988 z"
         id="path2141" />
      <g
         id="g2147">
	<path
   style="fill:#f4b298"
   d="m 250.377,129.272 h -25.779 c -4.593,0 -8.316,3.724 -8.316,8.316 v 0 c 0,4.593 3.724,8.316 8.316,8.316 h 25.779 c 4.593,0 8.316,-3.724 8.316,-8.316 v 0 c -10e-4,-4.592 -3.723,-8.316 -8.316,-8.316 z"
   id="path2143" />

	<path
   style="fill:#f4b298"
   d="m 237.487,111.939 v 0 c -5.282,0 -9.563,4.282 -9.563,9.563 v 16.087 h 19.127 v -16.087 c 0,-5.282 -4.283,-9.563 -9.564,-9.563 z"
   id="path2145" />

</g>
      <path
         style="fill:#53506d"
         d="m 237.487,1.814 c -34.509,15.609 -35.07,65.322 -4.156,80.057 44.491,21.206 60.707,-36.59 60.707,-36.59 0,0 -29.106,19.127 -37.422,0 C 248.3,26.154 281.919,8.763 301.284,17.459 l -0.053,-0.045 C 283.611,2.495 260.006,-3.282 237.487,1.814 Z"
         id="path2149" />
      <path
         style="fill:#393751"
         d="m 249.964,81.871 c 3.567,1.696 6.952,2.894 10.162,3.642 -7.477,1.963 -16.357,1.331 -26.794,-3.642 -30.919,-14.736 -30.353,-64.449 4.158,-80.058 8.15,-1.846 16.441,-2.262 24.54,-1.339 -2.644,0.3 -5.281,0.748 -7.909,1.339 -34.511,15.609 -35.076,65.322 -4.157,80.058 z"
         id="path2151" />
      <g
         id="g2157">
	<ellipse
   style="fill:#fcb8d2"
   cx="324.33401"
   cy="169.13499"
   rx="19.059"
   ry="11.598"
   id="ellipse2153" />

	<path
   style="fill:#fcb8d2"
   d="m 169.698,169.139 c 0,6.403 -8.532,11.593 -19.051,11.593 -2.628,0 -5.131,-0.325 -7.401,-0.914 -6.852,-1.746 -11.658,-5.871 -11.658,-10.678 0,-3.9 3.168,-7.36 8.033,-9.455 3.11,-1.348 6.919,-2.137 11.027,-2.137 10.518,-0.001 19.05,5.188 19.05,11.591 z"
   id="path2155" />

</g>
      <path
         style="fill:#ef9bbe"
         d="m 143.245,179.816 c -6.852,-1.746 -11.658,-5.871 -11.658,-10.678 0,-3.9 3.168,-7.36 8.033,-9.455 0.798,7.07 2.012,13.78 3.625,20.133 z"
         id="path2159" />
      <path
         style="fill:#f4b298"
         d="m 249.311,236.058 c -7.73,2.183 -15.918,2.183 -23.648,0 -2.049,-0.578 -4.199,0.515 -4.951,2.506 -0.009,0.026 -0.02,0.052 -0.029,0.078 -0.848,2.242 0.385,4.758 2.692,5.411 9.226,2.611 18.999,2.611 28.224,0 2.307,-0.652 3.539,-3.168 2.692,-5.411 -0.009,-0.026 -0.02,-0.052 -0.029,-0.078 -0.753,-1.992 -2.901,-3.085 -4.951,-2.506 z"
         id="path2161" />
      <path
         style="fill:#edac4f"
         d="m 251.292,442.037 v 29.355 c 0,18.822 -13.383,34.522 -31.15,38.113 -34.261,-4.802 -66.341,-16.4 -94.84,-33.384 -0.188,-1.555 -0.282,-3.132 -0.282,-4.729 v -29.355 z"
         id="path2163" />
      <g
         id="g2169">
	<path
   style="fill:#ffc25f"
   d="m 251.292,460.723 v 10.669 c 0,18.822 -13.383,34.522 -31.15,38.113 0,0 0,0 -0.01,0 -22.924,-3.215 -44.867,-9.468 -65.412,-18.352 -3.434,-5.794 -5.397,-12.548 -5.397,-19.761 0,-2.954 1.2,-5.616 3.132,-7.548 1.931,-1.931 4.604,-3.121 7.548,-3.121 z"
   id="path2165" />

	<path
   style="fill:#ffc25f"
   d="m 115.205,450.665 h 145.899 c 5.843,0 10.58,-4.736 10.58,-10.58 v 0 c 0,-5.843 -4.736,-10.58 -10.58,-10.58 h -145.9 c -5.843,0 -10.58,4.736 -10.58,10.58 v 0 c 0.001,5.844 4.739,10.58 10.581,10.58 z"
   id="path2167" />

</g>
      <path
         style="fill:#edac4f"
         d="m 135.214,440.085 v 0 c 0,-5.843 4.737,-10.58 10.58,-10.58 h -30.589 c -5.843,0 -10.58,4.737 -10.58,10.58 v 0 c 0,5.843 4.736,10.58 10.58,10.58 h 30.589 c -5.844,10e-4 -10.58,-4.736 -10.58,-10.58 z"
         id="path2171" />
      <path
         style="fill:#f9f9f9"
         d="m 342.921,478.116 h -57.767 c -6.356,0 -11.509,-5.153 -11.509,-11.509 v -13.828 c 0,-6.356 5.153,-11.509 11.509,-11.509 h 57.767 c 6.356,0 11.509,5.153 11.509,11.509 v 13.828 c 0,6.357 -5.153,11.509 -11.509,11.509 z"
         id="path2173" />
      <path
         style="fill:#e8e8e8"
         d="M 290.115,466.608 V 452.78 c 0,-6.355 5.153,-11.508 11.509,-11.508 h -16.471 c -6.356,0 -11.509,5.153 -11.509,11.508 v 13.828 c 0,6.356 5.153,11.509 11.509,11.509 h 16.471 c -6.356,-0.001 -11.509,-5.154 -11.509,-11.509 z"
         id="path2175" />
      <path
         style="fill:#f9cebb"
         d="m 202.273,442.822 v 0 c -15.377,0 -27.843,-12.465 -27.843,-27.843 V 296.548 c 0,-15.377 12.465,-27.843 27.843,-27.843 v 0 c 15.377,0 27.843,12.465 27.843,27.843 v 118.431 c -0.001,15.378 -12.466,27.843 -27.843,27.843 z"
         id="path2177" />
      <path
         style="fill:#f4b298"
         d="M 188.547,414.979 V 296.548 c 0,-12.938 8.825,-23.813 20.784,-26.938 -2.255,-0.59 -4.619,-0.905 -7.059,-0.905 v 0 c -15.377,0 -27.843,12.466 -27.843,27.843 v 118.431 c 0,15.378 12.465,27.843 27.843,27.843 v 0 c 2.44,0 4.804,-0.316 7.059,-0.905 -11.958,-3.125 -20.784,-14 -20.784,-26.938 z"
         id="path2179" />
      <g
         id="g2181">
</g>
      <g
         id="g2183">
</g>
      <g
         id="g2185">
</g>
      <g
         id="g2187">
</g>
      <g
         id="g2189">
</g>
      <g
         id="g2191">
</g>
      <g
         id="g2193">
</g>
      <g
         id="g2195">
</g>
      <g
         id="g2197">
</g>
      <g
         id="g2199">
</g>
      <g
         id="g2201">
</g>
      <g
         id="g2203">
</g>
      <g
         id="g2205">
</g>
      <g
         id="g2207">
</g>
      <g
         id="g2209">
</g>
    </g>
  </g>
</svg>
