<?xml version="1.0" encoding="UTF-8" standalone="no"?>
<svg
   xmlns:dc="http://purl.org/dc/elements/1.1/"
   xmlns:cc="http://creativecommons.org/ns#"
   xmlns:rdf="http://www.w3.org/1999/02/22-rdf-syntax-ns#"
   xmlns:svg="http://www.w3.org/2000/svg"
   xmlns="http://www.w3.org/2000/svg"
   id="svg8"
   version="1.1"
   viewBox="0 0 338.66666 190.50001"
   height="720"
   width="1280">
  <defs
     id="defs2">
    <filter
       height="1.039403"
       y="-0.01970149"
       width="1.034549"
       x="-0.017274494"
       id="filter3638"
       style="color-interpolation-filters:sRGB">
      <feGaussianBlur
         id="feGaussianBlur3640"
         stdDeviation="6.5016169" />
    </filter>
  </defs>
  <metadata
     id="metadata5">
    <rdf:RDF>
      <cc:Work
         rdf:about="">
        <dc:format>image/svg+xml</dc:format>
        <dc:type
           rdf:resource="http://purl.org/dc/dcmitype/StillImage" />
        <dc:title></dc:title>
      </cc:Work>
    </rdf:RDF>
  </metadata>
  <g
     transform="translate(0,-106.49998)"
     id="layer1">
    <rect
       y="103.47617"
       x="-1.5119048"
       height="197.30357"
       width="346.2262"
       id="rect815"
       style="opacity:1;fill:#fc6d5c;fill-opacity:1;fill-rule:nonzero;stroke:#e39c3f;stroke-width:0.78399998;stroke-linecap:round;stroke-linejoin:round;stroke-miterlimit:4;stroke-dasharray:none;stroke-opacity:1;paint-order:normal" />
    <g
       style="filter:url(#filter3638)"
       transform="matrix(0.68087505,0,0,0.49744365,-12.876115,97.924716)"
       id="g2944">
	
	<g
   id="g2930">
		
		
		
	</g>

	
<g
   transform="matrix(1.246635,0,0,1.0954556,-48.277423,-23.24724)"
   id="g3560">
  <g
     id="g3423">
	<g
   id="g3261">
		<ellipse
   ry="256"
   rx="362.29135"
   style="fill:#9af4ef;stroke-width:1.18962204"
   cx="248.64285"
   cy="44.999229"
   id="circle3259" />

	</g>

	<g
   style="opacity:0.3"
   id="g3265">
		<path
   style="fill:#fffff4"
   d="M 407.376,49.583 C 294.06,79.836 210.577,183.148 210.577,306 c 0,80.664 36.031,152.869 92.82,201.548 C 422.126,485.311 512,381.182 512,256 512,171.264 470.804,96.177 407.376,49.583 Z"
   id="path3263" />

	</g>

	<g
   id="g3269">
		<path
   style="fill:#36b294"
   d="M 215,214.034 C 203.752,204.729 187.5,213 178.75,205.5 c -11.695,-10.024 -14.351,-12.646 -25.031,-15.384 -9.75,-2.5 -18.578,3.156 -27.969,-9.366 -6.75,-9 -13.117,-8.089 -21.263,-6.089 -8.146,2 -10.649,-0.214 -21.612,-9.286 -7.25,-6 -13.875,-8.125 -28.875,-7.625 -12.651,0.422 -22.601,-2.382 -31.849,-5.894 -8.893,19.938 -15.34,41.198 -18.894,63.438 36.23,3.803 47.12,2.15 61.243,6.706 15.5,5 166.167,35.5 168.834,34 2.667,-1.5 4.436,-25.304 4.436,-25.304 -15.131,-2.734 -15.337,-10.513 -22.77,-16.662 z"
   id="path3267" />

	</g>

	<g
   style="opacity:0.4"
   id="g3273">
		<path
   style="fill:#fffff4"
   d="m 358.667,306 c 0,56.513 39.963,103.67 93.165,114.815 C 489.354,376.277 512,318.795 512,256 c 0,-22.041 -2.789,-43.43 -8.027,-63.837 -8.98,-2.201 -18.314,-3.496 -27.973,-3.496 -64.801,0 -117.333,52.531 -117.333,117.333 z"
   id="path3271" />

	</g>

	<g
   id="g3293">
		<g
   id="g3279">
			<g
   id="g3277">
				<path
   style="fill:#674447"
   d="m 422.504,277.018 c -2.793,0 -5.054,-2.262 -5.054,-5.051 v -54.398 c 0,-2.789 2.262,-5.051 5.054,-5.051 2.793,0 5.054,2.262 5.054,5.051 v 54.398 c 0,2.79 -2.261,5.051 -5.054,5.051 z"
   id="path3275" />

			</g>

		</g>

		<g
   id="g3285">
			<g
   id="g3283">
				<path
   style="fill:#43ab5f"
   d="m 454.336,212.935 c 0,17.581 -14.252,31.833 -31.833,31.833 -17.581,0 -31.833,-14.252 -31.833,-31.833 0,-17.581 14.252,-71.625 31.833,-71.625 17.581,0.001 31.833,54.044 31.833,71.625 z"
   id="path3281" />

			</g>

		</g>

		<g
   id="g3291">
			<g
   id="g3289">
				<path
   style="fill:#71be63"
   d="m 422.503,141.31 c -4.413,0 -8.616,3.411 -12.437,8.791 h 0.001 c 16.091,0 29.135,49.464 29.135,65.555 0,13.997 -9.878,25.667 -23.038,28.473 2.049,0.414 4.167,0.639 6.338,0.639 17.581,0 31.833,-14.252 31.833,-31.833 0.001,-17.581 -14.252,-71.625 -31.832,-71.625 z"
   id="path3287" />

			</g>

		</g>

	</g>

	<g
   style="opacity:0.6"
   id="g3297">
		<path
   style="fill:#ffffff"
   d="m 166.646,141.623 c 0,-10.575 8.573,-19.149 19.149,-19.149 1.596,0 3.122,0.252 4.604,0.62 4.997,-5.396 12.081,-8.827 20.015,-8.827 15.108,0 27.355,12.247 27.355,27.355 h -71.123 z"
   id="path3295" />

	</g>

	<g
   style="opacity:0.6"
   id="g3301">
		<path
   style="fill:#ffffff"
   d="m 164.295,65 c 0,-9.442 7.654,-17.096 17.096,-17.096 1.425,0 2.788,0.225 4.111,0.554 4.461,-4.818 10.786,-7.881 17.87,-7.881 13.488,0 24.423,10.935 24.423,24.423 z"
   id="path3299" />

	</g>

	<g
   style="opacity:0.6"
   id="g3305">
		<path
   style="fill:#ffffff"
   d="m 400,84.615 c 0,-7.583 -6.148,-13.731 -13.731,-13.731 -1.145,0 -2.239,0.181 -3.302,0.445 -3.583,-3.869 -8.663,-6.33 -14.352,-6.33 C 357.782,65 349,73.782 349,84.615 Z"
   id="path3303" />

	</g>

	<g
   id="g3309">
		<path
   style="fill:#00a07d"
   d="m 263.878,248 c -6.73,0 -7.852,-6.655 -8.512,-8 -7.366,-15 -16.283,-8 -30.913,-8 -11.438,0 -13.776,-16.667 -20.16,-16 -6.384,0.667 -16.669,11.333 -25.536,8 -12.724,-4.784 -13.123,-12 -25.537,-16 -10.954,-3.53 -20.216,-1 -25.537,-8 -10.359,-13.63 -17.822,1.25 -34.049,-8 -16.503,-9.408 -21.635,8 -34.048,8 -13.041,0 -8.513,-16 -25.537,-16 -9.644,0 -15.328,11.76 -27.526,15.085 C 2.303,217.397 0,236.428 0,256 c 0,10.092 0.658,20.027 1.81,29.813 3.915,3.633 8.148,6.828 12.393,8.651 C 29.422,301 349,306.615 349,306.615 V 280 c -23.409,0 -23.409,-16 -42.561,-16 -25.803,0 -23.409,-16 -42.561,-16 z"
   id="path3307" />

	</g>

	<g
   id="g3313">
		<path
   style="fill:#94d75b"
   d="m 107,433.548 237,-126.934 -6,-12.948 c -57.385,0 -156.966,-58.334 -338,-37.667 0,63.767 23.368,122.04 61.938,166.856 24.226,5.787 45.062,10.693 45.062,10.693 z"
   id="path3311" />

	</g>

	<g
   id="g3317">
		<path
   style="fill:#b0eb81"
   d="m 338,293.667 c -52.623,0 -140.781,-49.009 -294.643,-41.213 136.795,0.118 220.685,61.353 263.643,61.353 l 12,-4.476 19.357,-14.892 z"
   id="path3315" />

	</g>

	<g
   id="g3321">
		<path
   style="fill:#ffffff"
   d="m 180.261,119.675 c -2.303,0 -4.479,0.453 -6.565,1.111 -6.607,-9.498 -17.568,-15.743 -30.014,-15.743 -12.446,0 -23.407,6.245 -30.014,15.743 -2.086,-0.658 -4.262,-1.111 -6.565,-1.111 -12.121,0 -21.948,9.826 -21.948,21.948 h 117.054 c -0.001,-12.121 -9.827,-21.948 -21.948,-21.948 z"
   id="path3319" />

	</g>

	<g
   id="g3325">
		<path
   style="fill:#ffffff"
   d="m 352,99.333 c -2.518,0 -4.898,0.496 -7.179,1.215 C 337.596,90.162 325.611,83.333 312,83.333 c -13.611,0 -25.596,6.829 -32.821,17.215 -2.281,-0.719 -4.661,-1.215 -7.179,-1.215 -13.255,0 -24,10.745 -24,24 h 128 c 0,-13.255 -10.745,-24 -24,-24 z"
   id="path3323" />

	</g>

	<g
   id="g3329">
		<path
   style="fill:#ffffff"
   d="m 184.705,83.333 c 0,-14.175 11.491,-25.667 25.667,-25.667 2.139,0 4.185,0.338 6.172,0.832 6.697,-7.233 16.193,-11.832 26.828,-11.832 20.25,0 36.667,16.416 36.667,36.667 z"
   id="path3327" />

	</g>

	<g
   id="g3333">
		<path
   style="fill:#71be63"
   d="M 22.667,361.284 C 62.823,450.136 152.158,512 256,512 c 141.385,0 256,-114.615 256,-256 0,-2.672 -0.12,-5.314 -0.201,-7.966 C 353.492,248.76 281.706,360 22.667,360 Z"
   id="path3331" />

	</g>

	<g
   id="g3353">
		<g
   id="g3339">
			<g
   id="g3337">
				<path
   style="fill:#674447"
   d="m 349.002,309.33 c -3.169,0 -5.736,-2.566 -5.736,-5.731 v -61.73 c 0,-3.165 2.566,-5.731 5.736,-5.731 3.17,0 5.735,2.566 5.735,5.731 v 61.73 c 0,3.165 -2.566,5.731 -5.735,5.731 z"
   id="path3335" />

			</g>

		</g>

		<g
   id="g3345">
			<g
   id="g3343">
				<path
   style="fill:#43ab5f"
   d="m 385.123,236.611 c 0,19.95 -16.173,36.123 -36.123,36.123 -19.95,0 -36.123,-16.173 -36.123,-36.123 0,-19.95 16.173,-81.278 36.123,-81.278 19.95,0 36.123,61.327 36.123,81.278 z"
   id="path3341" />

			</g>

		</g>

		<g
   id="g3351">
			<g
   id="g3349">
				<path
   style="fill:#71be63"
   d="m 349,155.333 c -5.008,0 -9.777,3.871 -14.113,9.976 h 10e-4 c 18.26,0 33.062,56.13 33.062,74.39 0,15.883 -11.209,29.126 -26.143,32.311 2.325,0.47 4.729,0.725 7.192,0.725 19.95,0 36.124,-16.173 36.124,-36.123 C 385.124,216.66 368.95,155.333 349,155.333 Z"
   id="path3347" />

			</g>

		</g>

	</g>

	<g
   id="g3357">
		<path
   style="fill:#43ab5f"
   d="M 511.394,272.76 C 398.881,273.312 237.582,428.989 80.136,441.742 125.996,485.213 187.815,512 256,512 391.748,512 502.753,406.324 511.394,272.76 Z"
   id="path3355" />

	</g>

	<g
   id="g3361">
		<circle
   style="fill:#b0eb81"
   cx="195.541"
   cy="448.66699"
   r="6.6669998"
   id="circle3359" />

	</g>

	<g
   id="g3365">
		<circle
   style="fill:#94d75b"
   cx="226.66701"
   cy="370.26599"
   r="6.6669998"
   id="circle3363" />

	</g>

	<g
   id="g3369">
		<circle
   style="fill:#94d75b"
   cx="407.06601"
   cy="282.70999"
   r="6.6669998"
   id="circle3367" />

	</g>

	<g
   id="g3373">
		<circle
   style="fill:#71be63"
   cx="295.76501"
   cy="459.33301"
   r="6.6669998"
   id="circle3371" />

	</g>

	<g
   id="g3377">
		<circle
   style="fill:#b0eb81"
   cx="331.69101"
   cy="418"
   r="6.6669998"
   id="circle3375" />

	</g>

	<g
   id="g3381">
		<circle
   style="fill:#71be63"
   cx="256"
   cy="427.48199"
   r="6.6669998"
   id="circle3379" />

	</g>

	<g
   id="g3385">
		<circle
   style="fill:#71be63"
   cx="144"
   cy="455.33301"
   r="6.6669998"
   id="circle3383" />

	</g>

	<g
   id="g3389">
		<circle
   style="fill:#b0eb81"
   cx="150.66701"
   cy="399.047"
   r="6.6669998"
   id="circle3387" />

	</g>

	<g
   id="g3393">
		<circle
   style="fill:#b0eb81"
   cx="262.66699"
   cy="345.33301"
   r="6.6669998"
   id="circle3391" />

	</g>

	<g
   id="g3397">
		<circle
   style="fill:#94d75b"
   cx="95.980003"
   cy="395.71301"
   r="6.6669998"
   id="circle3395" />

	</g>

	<g
   id="g3401">
		<circle
   style="fill:#b0eb81"
   cx="378.457"
   cy="389.047"
   r="6.6669998"
   id="circle3399" />

	</g>

	<g
   id="g3405">
		<circle
   style="fill:#b0eb81"
   cx="443.00201"
   cy="370.26599"
   r="6.6669998"
   id="circle3403" />

	</g>

	<g
   id="g3409">
		<circle
   style="fill:#71be63"
   cx="319.543"
   cy="382.38"
   r="6.6669998"
   id="circle3407" />

	</g>

	<g
   id="g3413">
		<circle
   style="fill:#71be63"
   cx="378.457"
   cy="433.548"
   r="6.6669998"
   id="circle3411" />

	</g>

	<g
   id="g3417">
		<circle
   style="fill:#71be63"
   cx="398.66699"
   cy="352"
   r="6.6669998"
   id="circle3415" />

	</g>

	<g
   id="g3421">
		<circle
   style="fill:#71be63"
   cx="443.00201"
   cy="313.28101"
   r="6.6669998"
   id="circle3419" />

	</g>

</g>
  <g
     id="g3425">
</g>
  <g
     id="g3427">
</g>
  <g
     id="g3429">
</g>
  <g
     id="g3431">
</g>
  <g
     id="g3433">
</g>
  <g
     id="g3435">
</g>
  <g
     id="g3437">
</g>
  <g
     id="g3439">
</g>
  <g
     id="g3441">
</g>
  <g
     id="g3443">
</g>
  <g
     id="g3445">
</g>
  <g
     id="g3447">
</g>
  <g
     id="g3449">
</g>
  <g
     id="g3451">
</g>
  <g
     id="g3453">
</g>
</g>
</g>
  </g>
</svg>
