<?xml version="1.0" encoding="UTF-8" standalone="no"?>
<svg
   xmlns:dc="http://purl.org/dc/elements/1.1/"
   xmlns:cc="http://creativecommons.org/ns#"
   xmlns:rdf="http://www.w3.org/1999/02/22-rdf-syntax-ns#"
   xmlns:svg="http://www.w3.org/2000/svg"
   xmlns="http://www.w3.org/2000/svg"
   id="svg8"
   version="1.1"
   viewBox="0 0 338.66666 190.50001"
   height="720"
   width="1280">
  <defs
     id="defs2" />
  <metadata
     id="metadata5">
    <rdf:RDF>
      <cc:Work
         rdf:about="">
        <dc:format>image/svg+xml</dc:format>
        <dc:type
           rdf:resource="http://purl.org/dc/dcmitype/StillImage" />
        <dc:title></dc:title>
      </cc:Work>
    </rdf:RDF>
  </metadata>
  <g
     transform="translate(0,-106.49998)"
     id="layer1">
    <rect
       y="103.47617"
       x="-1.5119048"
       height="197.30357"
       width="346.2262"
       id="rect815"
       style="opacity:1;fill:#fc6d5c;fill-opacity:1;fill-rule:nonzero;stroke:#e39c3f;stroke-width:0.78399998;stroke-linecap:round;stroke-linejoin:round;stroke-miterlimit:4;stroke-dasharray:none;stroke-opacity:1;paint-order:normal" />
    <g
       transform="matrix(0.33042897,0,0,0.31478324,93.059161,123.43324)"
       id="g1986">
      <path
         style="fill:#a45e43"
         d="m 234.434,208.048 h -15.223 c 0,-6.995 -5.69,-12.686 -12.686,-12.686 H 130.41 v -15.223 h 76.115 c 15.39,0 27.909,12.52 27.909,27.909 z"
         id="path1853" />
      <path
         style="fill:#c27749"
         d="M 41.609,208.048 H 26.386 c 0,-15.388 12.519,-27.909 27.909,-27.909 h 76.115 v 15.223 H 54.295 c -6.995,0 -12.686,5.69 -12.686,12.686 z"
         id="path1855" />
      <path
         style="fill:#2dade3"
         d="m 193.711,497.166 -25.242,-8.414 V 279.086 h -15.223 v 215.152 c 0,3.276 2.096,6.185 5.204,7.221 l 30.446,10.149 c 3.988,1.329 8.3,-0.826 9.628,-4.815 1.325,-3.988 -0.826,-8.299 -4.813,-9.627 z"
         id="path1857" />
      <path
         style="fill:#49c9ff"
         d="m 67.11,497.166 25.242,-8.414 V 279.086 h 15.223 v 215.152 c 0,3.276 -2.096,6.185 -5.204,7.221 l -30.446,10.149 c -3.988,1.329 -8.3,-0.826 -9.628,-4.815 -1.326,-3.988 0.826,-8.299 4.813,-9.627 z"
         id="path1859" />
      <path
         style="fill:#2dade3"
         d="m 155.782,167.453 h -30.446 v 121.784 h 50.743 V 187.75 c 0,-11.21 -9.087,-20.297 -20.297,-20.297 z"
         id="path1861" />
      <path
         style="fill:#49c9ff"
         d="m 125.336,167.453 h -20.297 c -11.21,0 -20.297,9.087 -20.297,20.297 v 101.487 h 60.892 V 187.75 c -10e-4,-11.21 -9.088,-20.297 -20.298,-20.297 z"
         id="path1863" />
      <path
         style="fill:#ff4128"
         d="m 176.079,258.791 h -30.446 l 15.223,91.338 h 30.446 v -51.083 c 0,-15.438 -5.755,-29.523 -15.223,-40.255 z"
         id="path1865" />
      <path
         style="fill:#ff6337"
         d="M 145.633,258.791 H 84.741 c -9.468,10.732 -15.223,24.818 -15.223,40.255 v 51.083 h 91.338 v -51.083 c 0,-15.438 -5.755,-29.523 -15.223,-40.255 z"
         id="path1867" />
      <circle
         style="fill:#60312c"
         cx="130.41"
         cy="22.834"
         r="22.834"
         id="circle1869" />
      <path
         style="fill:#a45e43"
         d="m 165.175,61.739 c 0.01,-0.01 -34.764,-0.005 -34.764,-0.005 v 75.273 c 25.219,0 45.669,-20.45 45.669,-45.669 -0.001,-11.285 -4.106,-21.632 -10.905,-29.599 z"
         id="path1871" />
      <path
         style="fill:#c27749"
         d="M 144.507,74.095 95.646,61.739 c -6.8,7.967 -10.905,18.313 -10.905,29.599 0,25.219 20.45,45.669 45.669,45.669 8.403,0 15.223,-20.45 15.223,-45.669 0,-6.099 -0.396,-11.925 -1.126,-17.243 z"
         id="path1873" />
      <path
         style="fill:#40211d"
         d="m 130.41,45.669 14.096,28.426 c 7.561,-2.263 14.69,-6.389 20.668,-12.356 -8.372,-9.834 -20.84,-16.07 -34.764,-16.07 z"
         id="path1875" />
      <path
         style="fill:#60312c"
         d="m 130.41,45.669 c -13.924,0 -26.392,6.236 -34.764,16.07 13.234,13.234 32.115,17.359 48.861,12.356 -2.263,-16.674 -7.723,-28.426 -14.097,-28.426 z"
         id="path1877" />
      <path
         style="fill:#ffe2a8"
         d="m 363.829,15.223 v 243.568 c 67.152,0 121.784,-54.632 121.784,-121.784 0,-67.152 -54.632,-121.784 -121.784,-121.784 z"
         id="path1879" />
      <path
         style="fill:#fff0d3"
         d="m 455.167,137.007 c 0,-67.152 -40.974,-121.784 -91.338,-121.784 -61.578,0 -112.621,45.942 -120.671,105.349 l -39.678,16.435 39.678,16.435 c 8.05,59.407 59.093,105.349 120.671,105.349 50.364,0 91.338,-54.632 91.338,-121.784 z"
         id="path1881" />
      <path
         style="fill:#a45e43"
         d="m 206.525,235.956 h -60.892 c -4.204,0 -7.611,-3.407 -7.611,-7.611 0,-4.205 3.408,-7.612 7.611,-7.612 h 60.892 c 6.995,0 12.686,-5.69 12.686,-12.686 0,-4.205 3.408,-7.611 7.611,-7.611 4.204,0 7.612,3.407 7.612,7.611 0,15.389 -12.519,27.909 -27.909,27.909 z"
         id="path1883" />
      <path
         style="fill:#c27749"
         d="M 115.187,235.956 H 54.295 c -15.389,0 -27.909,-12.52 -27.909,-27.909 0,-4.205 3.408,-7.611 7.611,-7.611 4.203,0 7.611,3.407 7.611,7.611 0,6.995 5.69,12.686 12.686,12.686 h 60.892 c 4.204,0 7.611,3.407 7.611,7.612 0.002,4.204 -3.406,7.611 -7.61,7.611 z"
         id="path1885" />
      <path
         style="fill:#ff8646"
         d="m 409.498,141.32 -18.268,65.205 h 18.268 c 16.745,0 30.446,-13.701 30.446,-30.446 V 141.32 Z"
         id="path1887" />
      <path
         style="fill:#ffa754"
         d="M 409.498,176.079 V 141.32 H 287.715 v 34.759 c 0,16.745 13.701,30.446 30.446,30.446 h 73.07 c 10.047,0 18.267,-13.7 18.267,-30.446 z"
         id="path1889" />
      <path
         style="fill:#ff6337"
         d="m 363.829,45.669 45.669,95.651 h 30.446 v -19.536 c 0,-42.037 -34.078,-76.115 -76.115,-76.115 z"
         id="path1891" />
      <path
         style="fill:#ff8646"
         d="m 409.498,121.784 c 0,-42.037 -20.447,-76.115 -45.669,-76.115 -42.037,0 -76.115,34.078 -76.115,76.115 v 19.536 h 121.784 z"
         id="path1893" />
      <path
         style="fill:#60312c"
         d="m 439.944,121.784 h -30.446 v 39.072 h 30.446 c 10.789,0 19.536,-8.747 19.536,-19.536 10e-4,-10.789 -8.746,-19.536 -19.536,-19.536 z"
         id="path1895" />
      <path
         style="fill:#85453d"
         d="m 429.035,141.32 c 0,-10.789 -8.747,-19.536 -19.536,-19.536 H 287.715 c -10.789,0 -19.536,8.747 -19.536,19.536 0,10.789 8.747,19.536 19.536,19.536 h 121.784 c 10.789,0 19.536,-8.747 19.536,-19.536 z"
         id="path1897" />
      <g
         id="g1905">
	<circle
   style="fill:#ffffff"
   cx="363.82901"
   cy="76.114998"
   r="7.6110001"
   id="circle1899" />

	<circle
   style="fill:#ffffff"
   cx="394.27499"
   cy="91.337997"
   r="7.6110001"
   id="circle1901" />

	<circle
   style="fill:#ffffff"
   cx="333.384"
   cy="91.337997"
   r="7.6110001"
   id="circle1903" />

</g>
      <g
         id="g1907">
</g>
      <g
         id="g1909">
</g>
      <g
         id="g1911">
</g>
      <g
         id="g1913">
</g>
      <g
         id="g1915">
</g>
      <g
         id="g1917">
</g>
      <g
         id="g1919">
</g>
      <g
         id="g1921">
</g>
      <g
         id="g1923">
</g>
      <g
         id="g1925">
</g>
      <g
         id="g1927">
</g>
      <g
         id="g1929">
</g>
      <g
         id="g1931">
</g>
      <g
         id="g1933">
</g>
      <g
         id="g1935">
</g>
    </g>
  </g>
</svg>
